<?xml version="1.0" encoding="UTF-8"?>
<svg id="Layer_2" data-name="Layer 2" xmlns="http://www.w3.org/2000/svg" viewBox="0 0 285.6 285.6">
  <defs>
    <style>
      .cls-1 {
        fill: #fff;
      }

      .cls-2 {
        fill: #f45d01;
      }
    </style>
  </defs>
  <g id="logo_w_wordmark" data-name="logo w/wordmark">
    <g>
      <rect class="cls-2" width="285.6" height="285.6" rx="54.5" ry="54.5"/>
      <g>
        <path class="cls-1" d="M136.6,117.3H63.2c-1.1,0-2.1-.4-2.8-1.2l-36.6-36.6c-2.5-2.5-.7-6.8,2.8-6.8h75.1l37.7,37.7c2.5,2.5.7,6.8-2.8,6.8Z"/>
        <path class="cls-1" d="M241.9,212.9h-73.3c-7.4,0-14.4-3-19.6-8.2l-76.8-76.8h73.2c7.4,0,14.4,2.9,19.6,8.1l76.9,76.9Z"/>
        <path class="cls-1" d="M249.6,117.3h-73.2c-7.4,0-14.4-2.9-19.6-8.1l-36.4-36.4h70.3c9.2,0,18.1,3.7,24.6,10.2l34.4,34.4Z"/>
        <path class="cls-1" d="M261.8,154.5l-24.6-24.6c-1.3-1.3-3-2-4.9-2h-51c-3.6,0-5.3,4.3-2.8,6.8l24.6,24.6c1.3,1.3,3,2,4.9,2h51c3.6,0,5.3-4.3,2.8-6.8Z"/>
      </g>
    </g>
  </g>
</svg>