<?xml version="1.0" encoding="UTF-8"?>
<svg id="Layer_2" data-name="Layer 2" xmlns="http://www.w3.org/2000/svg" viewBox="0 0 1190.1 285.6">
  <defs>
    <style>
      .cls-1 {
        fill: #fff;
      }

      .cls-2 {
        fill: #f45d01;
      }
    </style>
  </defs>
  <g id="logo_w_wordmark" data-name="logo w/wordmark">
    <g>
      <rect class="cls-2" width="285.6" height="285.6" rx="54.5" ry="54.5"/>
      <g>
        <path class="cls-1" d="M136.6,117.3H63.2c-1.1,0-2.1-.4-2.8-1.2l-36.6-36.6c-2.5-2.5-.7-6.8,2.8-6.8h75.1l37.7,37.7c2.5,2.5.7,6.8-2.8,6.8Z"/>
        <path class="cls-1" d="M241.9,212.9h-73.3c-7.4,0-14.4-3-19.6-8.2l-76.8-76.8h73.2c7.4,0,14.4,2.9,19.6,8.1l76.9,76.9Z"/>
        <path class="cls-1" d="M249.6,117.3h-73.2c-7.4,0-14.4-2.9-19.6-8.1l-36.4-36.4h70.3c9.2,0,18.1,3.7,24.6,10.2l34.4,34.4Z"/>
        <path class="cls-1" d="M261.8,154.5l-24.6-24.6c-1.3-1.3-3-2-4.9-2h-51c-3.6,0-5.3,4.3-2.8,6.8l24.6,24.6c1.3,1.3,3,2,4.9,2h51c3.6,0,5.3-4.3,2.8-6.8Z"/>
      </g>
    </g>
    <g>
      <path class="cls-1" d="M324.1,250.6V37h151.4v33h-114.7v58.9h106.5v33h-106.5v88.8h-36.6Z"/>
      <path class="cls-1" d="M487.3,250.6V37h36.6v180.7h108.9v33h-145.6Z"/>
      <path class="cls-1" d="M636.5,250.6l87.3-213.6h36.6l87.6,213.6h-37.8l-21.7-52.8h-92.5l-21.7,52.8h-37.8ZM709.2,165.5h66.2l-33-81.2-33.3,81.2Z"/>
      <path class="cls-1" d="M851.3,250.6V37h104.4c40.6,0,68.7,24.7,68.7,60.4s-18.6,47.9-47,55.2c14,2.7,24.1,11.3,29.3,24.4l27.5,73.5h-39.1l-24.7-67.4c-3-8.5-10.1-13.1-19.8-13.1h-62.5v80.6h-36.6ZM887.9,137.7h65.9c22.6,0,34.2-16.2,34.2-34.8s-13.4-33-34.2-33h-65.9v67.7Z"/>
      <path class="cls-1" d="M1037.8,250.6V37h149.5v33h-113.2v54.9h102.5v32h-102.5v60.7h116v33h-152.3Z"/>
    </g>
  </g>
</svg>